<mxfile host="app.diagrams.net" agent="Mozilla/5.0 (Windows NT 10.0; Win64; x64; rv:144.0) Gecko/20100101 Firefox/144.0" version="28.2.7">
  <diagram name="Strona-1" id="2ckkWR4jRFKhjTPQ8WSi">
    <mxGraphModel dx="1185" dy="652" grid="1" gridSize="10" guides="1" tooltips="1" connect="1" arrows="1" fold="1" page="1" pageScale="1" pageWidth="827" pageHeight="1169" math="0" shadow="0">
      <root>
        <mxCell id="0" />
        <mxCell id="1" parent="0" />
        <mxCell id="m3ocWKWfKcMocIrsz7Ho-1" value="" style="ellipse;whiteSpace=wrap;html=1;" vertex="1" parent="1">
          <mxGeometry x="350" y="30" width="110" height="70" as="geometry" />
        </mxCell>
        <mxCell id="m3ocWKWfKcMocIrsz7Ho-2" value="Start" style="text;strokeColor=none;fillColor=none;html=1;align=center;verticalAlign=middle;whiteSpace=wrap;rounded=0;fontSize=16;" vertex="1" parent="1">
          <mxGeometry x="375" y="50" width="60" height="30" as="geometry" />
        </mxCell>
        <mxCell id="m3ocWKWfKcMocIrsz7Ho-3" value="" style="endArrow=classic;html=1;rounded=0;fontSize=12;startSize=8;endSize=8;curved=1;" edge="1" parent="1">
          <mxGeometry width="50" height="50" relative="1" as="geometry">
            <mxPoint x="404.5" y="100" as="sourcePoint" />
            <mxPoint x="404.5" y="150" as="targetPoint" />
          </mxGeometry>
        </mxCell>
        <mxCell id="m3ocWKWfKcMocIrsz7Ho-4" value="" style="shape=parallelogram;perimeter=parallelogramPerimeter;whiteSpace=wrap;html=1;fixedSize=1;" vertex="1" parent="1">
          <mxGeometry x="345" y="150" width="120" height="60" as="geometry" />
        </mxCell>
        <mxCell id="m3ocWKWfKcMocIrsz7Ho-6" value="Wprowadź a i b" style="text;strokeColor=none;fillColor=none;html=1;align=center;verticalAlign=middle;whiteSpace=wrap;rounded=0;fontSize=16;" vertex="1" parent="1">
          <mxGeometry x="360" y="165" width="90" height="30" as="geometry" />
        </mxCell>
        <mxCell id="m3ocWKWfKcMocIrsz7Ho-7" value="" style="endArrow=classic;html=1;rounded=0;fontSize=12;startSize=8;endSize=8;curved=1;" edge="1" parent="1">
          <mxGeometry width="50" height="50" relative="1" as="geometry">
            <mxPoint x="404" y="210" as="sourcePoint" />
            <mxPoint x="404" y="250" as="targetPoint" />
          </mxGeometry>
        </mxCell>
        <mxCell id="m3ocWKWfKcMocIrsz7Ho-8" value="" style="rhombus;whiteSpace=wrap;html=1;" vertex="1" parent="1">
          <mxGeometry x="365" y="250" width="80" height="60" as="geometry" />
        </mxCell>
        <mxCell id="m3ocWKWfKcMocIrsz7Ho-5" value="a = 0?" style="text;strokeColor=none;fillColor=none;html=1;align=center;verticalAlign=middle;whiteSpace=wrap;rounded=0;fontSize=16;" vertex="1" parent="1">
          <mxGeometry x="375" y="265" width="60" height="30" as="geometry" />
        </mxCell>
        <mxCell id="m3ocWKWfKcMocIrsz7Ho-9" value="" style="endArrow=none;html=1;rounded=0;fontSize=12;startSize=8;endSize=8;curved=1;exitX=1;exitY=0.5;exitDx=0;exitDy=0;" edge="1" parent="1">
          <mxGeometry width="50" height="50" relative="1" as="geometry">
            <mxPoint x="445" y="279.5" as="sourcePoint" />
            <mxPoint x="640" y="280" as="targetPoint" />
          </mxGeometry>
        </mxCell>
        <mxCell id="m3ocWKWfKcMocIrsz7Ho-10" value="" style="endArrow=classic;html=1;rounded=0;fontSize=12;startSize=8;endSize=8;curved=1;" edge="1" parent="1">
          <mxGeometry width="50" height="50" relative="1" as="geometry">
            <mxPoint x="640" y="280" as="sourcePoint" />
            <mxPoint x="640" y="330" as="targetPoint" />
          </mxGeometry>
        </mxCell>
        <mxCell id="m3ocWKWfKcMocIrsz7Ho-11" value="Nie" style="text;strokeColor=none;fillColor=none;html=1;align=center;verticalAlign=middle;whiteSpace=wrap;rounded=0;fontSize=16;" vertex="1" parent="1">
          <mxGeometry x="500" y="250" width="60" height="30" as="geometry" />
        </mxCell>
        <mxCell id="m3ocWKWfKcMocIrsz7Ho-12" value="" style="rounded=0;whiteSpace=wrap;html=1;" vertex="1" parent="1">
          <mxGeometry x="590" y="330" width="110" height="50" as="geometry" />
        </mxCell>
        <mxCell id="m3ocWKWfKcMocIrsz7Ho-13" value="x = -b/a" style="text;strokeColor=none;fillColor=none;html=1;align=center;verticalAlign=middle;whiteSpace=wrap;rounded=0;fontSize=16;" vertex="1" parent="1">
          <mxGeometry x="615" y="340" width="60" height="30" as="geometry" />
        </mxCell>
        <mxCell id="m3ocWKWfKcMocIrsz7Ho-14" value="" style="endArrow=classic;html=1;rounded=0;fontSize=12;startSize=8;endSize=8;curved=1;" edge="1" parent="1">
          <mxGeometry width="50" height="50" relative="1" as="geometry">
            <mxPoint x="640" y="380" as="sourcePoint" />
            <mxPoint x="640" y="440" as="targetPoint" />
          </mxGeometry>
        </mxCell>
        <mxCell id="m3ocWKWfKcMocIrsz7Ho-15" value="" style="shape=parallelogram;perimeter=parallelogramPerimeter;whiteSpace=wrap;html=1;fixedSize=1;" vertex="1" parent="1">
          <mxGeometry x="575" y="440" width="125" height="60" as="geometry" />
        </mxCell>
        <mxCell id="m3ocWKWfKcMocIrsz7Ho-16" value="print(x)" style="text;strokeColor=none;fillColor=none;html=1;align=center;verticalAlign=middle;whiteSpace=wrap;rounded=0;fontSize=16;" vertex="1" parent="1">
          <mxGeometry x="607.5" y="455" width="60" height="30" as="geometry" />
        </mxCell>
        <mxCell id="m3ocWKWfKcMocIrsz7Ho-17" value="" style="endArrow=none;html=1;rounded=0;fontSize=12;startSize=8;endSize=8;curved=1;exitX=1;exitY=0.5;exitDx=0;exitDy=0;" edge="1" parent="1">
          <mxGeometry width="50" height="50" relative="1" as="geometry">
            <mxPoint x="170" y="280" as="sourcePoint" />
            <mxPoint x="365" y="280.5" as="targetPoint" />
          </mxGeometry>
        </mxCell>
        <mxCell id="m3ocWKWfKcMocIrsz7Ho-18" value="" style="endArrow=classic;html=1;rounded=0;fontSize=12;startSize=8;endSize=8;curved=1;" edge="1" parent="1">
          <mxGeometry width="50" height="50" relative="1" as="geometry">
            <mxPoint x="170" y="280" as="sourcePoint" />
            <mxPoint x="170" y="330" as="targetPoint" />
          </mxGeometry>
        </mxCell>
        <mxCell id="m3ocWKWfKcMocIrsz7Ho-19" value="Tak" style="text;strokeColor=none;fillColor=none;html=1;align=center;verticalAlign=middle;whiteSpace=wrap;rounded=0;fontSize=16;" vertex="1" parent="1">
          <mxGeometry x="240" y="250" width="60" height="30" as="geometry" />
        </mxCell>
        <mxCell id="m3ocWKWfKcMocIrsz7Ho-21" value="" style="rhombus;whiteSpace=wrap;html=1;" vertex="1" parent="1">
          <mxGeometry x="130" y="330" width="80" height="60" as="geometry" />
        </mxCell>
        <mxCell id="m3ocWKWfKcMocIrsz7Ho-22" value="&lt;div&gt;b = 0?&lt;/div&gt;" style="text;strokeColor=none;fillColor=none;html=1;align=center;verticalAlign=middle;whiteSpace=wrap;rounded=0;fontSize=16;" vertex="1" parent="1">
          <mxGeometry x="140" y="345" width="60" height="30" as="geometry" />
        </mxCell>
        <mxCell id="m3ocWKWfKcMocIrsz7Ho-23" value="" style="endArrow=classic;html=1;rounded=0;fontSize=12;startSize=8;endSize=8;curved=1;" edge="1" parent="1" source="m3ocWKWfKcMocIrsz7Ho-28">
          <mxGeometry width="50" height="50" relative="1" as="geometry">
            <mxPoint x="169.5" y="390" as="sourcePoint" />
            <mxPoint x="169.5" y="450" as="targetPoint" />
          </mxGeometry>
        </mxCell>
        <mxCell id="m3ocWKWfKcMocIrsz7Ho-24" value="Tak" style="text;strokeColor=none;fillColor=none;html=1;align=center;verticalAlign=middle;whiteSpace=wrap;rounded=0;fontSize=16;" vertex="1" parent="1">
          <mxGeometry x="120" y="400" width="60" height="30" as="geometry" />
        </mxCell>
        <mxCell id="m3ocWKWfKcMocIrsz7Ho-30" value="" style="endArrow=classic;html=1;rounded=0;fontSize=12;startSize=8;endSize=8;curved=1;" edge="1" parent="1" target="m3ocWKWfKcMocIrsz7Ho-28">
          <mxGeometry width="50" height="50" relative="1" as="geometry">
            <mxPoint x="169.5" y="390" as="sourcePoint" />
            <mxPoint x="169.5" y="450" as="targetPoint" />
          </mxGeometry>
        </mxCell>
        <mxCell id="m3ocWKWfKcMocIrsz7Ho-28" value="" style="shape=parallelogram;perimeter=parallelogramPerimeter;whiteSpace=wrap;html=1;fixedSize=1;" vertex="1" parent="1">
          <mxGeometry x="80" y="450" width="180" height="70" as="geometry" />
        </mxCell>
        <mxCell id="m3ocWKWfKcMocIrsz7Ho-29" value="&lt;div&gt;print(&quot;Nieskończenie wiele rozwiązań&quot;)&lt;/div&gt;" style="text;strokeColor=none;fillColor=none;html=1;align=center;verticalAlign=middle;whiteSpace=wrap;rounded=0;fontSize=16;" vertex="1" parent="1">
          <mxGeometry x="140" y="470" width="66" height="30" as="geometry" />
        </mxCell>
        <mxCell id="m3ocWKWfKcMocIrsz7Ho-32" style="edgeStyle=none;curved=1;rounded=0;orthogonalLoop=1;jettySize=auto;html=1;exitX=1;exitY=0.75;exitDx=0;exitDy=0;fontSize=12;startSize=8;endSize=8;" edge="1" parent="1" source="m3ocWKWfKcMocIrsz7Ho-29" target="m3ocWKWfKcMocIrsz7Ho-29">
          <mxGeometry relative="1" as="geometry" />
        </mxCell>
        <mxCell id="m3ocWKWfKcMocIrsz7Ho-33" value="" style="endArrow=none;html=1;rounded=0;fontSize=12;startSize=8;endSize=8;curved=1;" edge="1" parent="1">
          <mxGeometry width="50" height="50" relative="1" as="geometry">
            <mxPoint x="210" y="359.5" as="sourcePoint" />
            <mxPoint x="420" y="360" as="targetPoint" />
          </mxGeometry>
        </mxCell>
        <mxCell id="m3ocWKWfKcMocIrsz7Ho-34" value="&lt;div&gt;Nie&lt;/div&gt;" style="text;strokeColor=none;fillColor=none;html=1;align=center;verticalAlign=middle;whiteSpace=wrap;rounded=0;fontSize=16;" vertex="1" parent="1">
          <mxGeometry x="365" y="390" width="60" height="30" as="geometry" />
        </mxCell>
        <mxCell id="m3ocWKWfKcMocIrsz7Ho-35" value="" style="endArrow=classic;html=1;rounded=0;fontSize=12;startSize=8;endSize=8;curved=1;" edge="1" parent="1">
          <mxGeometry width="50" height="50" relative="1" as="geometry">
            <mxPoint x="420.5" y="360" as="sourcePoint" />
            <mxPoint x="420" y="450" as="targetPoint" />
          </mxGeometry>
        </mxCell>
        <mxCell id="m3ocWKWfKcMocIrsz7Ho-36" value="" style="shape=parallelogram;perimeter=parallelogramPerimeter;whiteSpace=wrap;html=1;fixedSize=1;" vertex="1" parent="1">
          <mxGeometry x="340" y="450" width="150" height="70" as="geometry" />
        </mxCell>
        <mxCell id="m3ocWKWfKcMocIrsz7Ho-37" value="print(&quot;Równanie sprzeczne&quot;)" style="text;strokeColor=none;fillColor=none;html=1;align=center;verticalAlign=middle;whiteSpace=wrap;rounded=0;fontSize=16;" vertex="1" parent="1">
          <mxGeometry x="390" y="470" width="60" height="30" as="geometry" />
        </mxCell>
        <mxCell id="m3ocWKWfKcMocIrsz7Ho-39" value="" style="ellipse;whiteSpace=wrap;html=1;" vertex="1" parent="1">
          <mxGeometry x="585" y="585" width="120" height="80" as="geometry" />
        </mxCell>
        <mxCell id="m3ocWKWfKcMocIrsz7Ho-40" value="Koniec" style="text;strokeColor=none;fillColor=none;html=1;align=center;verticalAlign=middle;whiteSpace=wrap;rounded=0;fontSize=16;" vertex="1" parent="1">
          <mxGeometry x="615" y="610" width="60" height="30" as="geometry" />
        </mxCell>
        <mxCell id="m3ocWKWfKcMocIrsz7Ho-41" value="" style="endArrow=classic;html=1;rounded=0;fontSize=12;startSize=8;endSize=8;curved=1;entryX=0.438;entryY=0.006;entryDx=0;entryDy=0;entryPerimeter=0;" edge="1" parent="1" target="m3ocWKWfKcMocIrsz7Ho-39">
          <mxGeometry width="50" height="50" relative="1" as="geometry">
            <mxPoint x="637" y="500" as="sourcePoint" />
            <mxPoint x="637" y="570" as="targetPoint" />
          </mxGeometry>
        </mxCell>
        <mxCell id="m3ocWKWfKcMocIrsz7Ho-42" value="" style="endArrow=none;html=1;rounded=0;fontSize=12;startSize=8;endSize=8;curved=1;" edge="1" parent="1">
          <mxGeometry width="50" height="50" relative="1" as="geometry">
            <mxPoint x="173" y="640" as="sourcePoint" />
            <mxPoint x="172.5" y="520" as="targetPoint" />
          </mxGeometry>
        </mxCell>
        <mxCell id="m3ocWKWfKcMocIrsz7Ho-43" value="" style="endArrow=classic;html=1;rounded=0;fontSize=12;startSize=8;endSize=8;curved=1;entryX=0.008;entryY=0.694;entryDx=0;entryDy=0;entryPerimeter=0;" edge="1" parent="1" target="m3ocWKWfKcMocIrsz7Ho-39">
          <mxGeometry width="50" height="50" relative="1" as="geometry">
            <mxPoint x="170" y="640" as="sourcePoint" />
            <mxPoint x="415" y="590" as="targetPoint" />
          </mxGeometry>
        </mxCell>
        <mxCell id="m3ocWKWfKcMocIrsz7Ho-44" value="" style="endArrow=none;html=1;rounded=0;fontSize=12;startSize=8;endSize=8;curved=1;" edge="1" parent="1">
          <mxGeometry width="50" height="50" relative="1" as="geometry">
            <mxPoint x="420" y="610" as="sourcePoint" />
            <mxPoint x="419.5" y="520" as="targetPoint" />
          </mxGeometry>
        </mxCell>
        <mxCell id="m3ocWKWfKcMocIrsz7Ho-45" value="" style="endArrow=classic;html=1;rounded=0;fontSize=12;startSize=8;endSize=8;curved=1;entryX=0.029;entryY=0.3;entryDx=0;entryDy=0;entryPerimeter=0;" edge="1" parent="1" target="m3ocWKWfKcMocIrsz7Ho-39">
          <mxGeometry width="50" height="50" relative="1" as="geometry">
            <mxPoint x="420" y="610" as="sourcePoint" />
            <mxPoint x="490" y="560" as="targetPoint" />
          </mxGeometry>
        </mxCell>
      </root>
    </mxGraphModel>
  </diagram>
</mxfile>
